<svg width="18" height="12" viewBox="0 0 18 12" fill="none" xmlns="http://www.w3.org/2000/svg">
<path fill-rule="evenodd" clip-rule="evenodd" d="M16.667 0.666666H15.667C15.1147 0.666666 14.667 1.11438 14.667 1.66667V10.3333C14.667 10.8856 15.1147 11.3333 15.667 11.3333H16.667C17.2193 11.3333 17.667 10.8856 17.667 10.3333V1.66667C17.667 1.11438 17.2193 0.666666 16.667 0.666666ZM11.0003 3H12.0003C12.5526 3 13.0003 3.44771 13.0003 4V10.3333C13.0003 10.8856 12.5526 11.3333 12.0003 11.3333H11.0003C10.448 11.3333 10.0003 10.8856 10.0003 10.3333V4C10.0003 3.44771 10.448 3 11.0003 3ZM7.33366 5.33333H6.33366C5.78137 5.33333 5.33366 5.78105 5.33366 6.33333V10.3333C5.33366 10.8856 5.78137 11.3333 6.33366 11.3333H7.33366C7.88594 11.3333 8.33366 10.8856 8.33366 10.3333V6.33333C8.33366 5.78105 7.88594 5.33333 7.33366 5.33333ZM2.66699 7.33333H1.66699C1.11471 7.33333 0.666992 7.78105 0.666992 8.33333V10.3333C0.666992 10.8856 1.11471 11.3333 1.66699 11.3333H2.66699C3.21928 11.3333 3.66699 10.8856 3.66699 10.3333V8.33333C3.66699 7.78105 3.21928 7.33333 2.66699 7.33333Z" fill="white"/>
</svg>
