<svg width="125" height="561" viewBox="0 0 125 561" fill="none" xmlns="http://www.w3.org/2000/svg">
<path opacity="0.5" fill-rule="evenodd" clip-rule="evenodd" d="M14.7 439H2.1C0.940202 439 0 438.06 0 436.9V427.1C0 425.94 0.940202 425 2.1 425H6.419C6.97577 425 7.50955 425.222 7.903 425.616L8.19 425.903C8.42784 426.181 8.41185 426.595 8.15329 426.853C7.89474 427.112 7.48073 427.128 7.203 426.89L6.916 426.603C6.7839 426.472 6.60506 426.399 6.419 426.4H2.1C1.7134 426.4 1.4 426.713 1.4 427.1V436.9C1.4 437.287 1.7134 437.6 2.1 437.6H14.7C15.0866 437.6 15.4 437.287 15.4 436.9V429.9C15.4 429.513 15.0866 429.2 14.7 429.2H3.5C3.1134 429.2 2.8 428.887 2.8 428.5C2.8 428.113 3.1134 427.8 3.5 427.8H14.7C15.8598 427.8 16.8 428.74 16.8 429.9V436.9C16.8 437.457 16.5788 437.991 16.1849 438.385C15.7911 438.779 15.257 439 14.7 439ZM9.1 432V431.3C9.1 430.913 8.7866 430.6 8.4 430.6C8.0134 430.6 7.7 430.913 7.7 431.3V432C7.7 432.387 8.0134 432.7 8.4 432.7C8.7866 432.7 9.1 432.387 9.1 432ZM9.1 435.5V434.8C9.1 434.413 8.7866 434.1 8.4 434.1C8.0134 434.1 7.7 434.413 7.7 434.8V435.5C7.7 435.887 8.0134 436.2 8.4 436.2C8.7866 436.2 9.1 435.887 9.1 435.5ZM7.7 433.4C7.7 433.013 7.3866 432.7 7 432.7H6.3C5.9134 432.7 5.6 433.013 5.6 433.4C5.6 433.787 5.9134 434.1 6.3 434.1H7C7.3866 434.1 7.7 433.787 7.7 433.4ZM11.2 433.4C11.2 433.013 10.8866 432.7 10.5 432.7H9.8C9.4134 432.7 9.1 433.013 9.1 433.4C9.1 433.787 9.4134 434.1 9.8 434.1H10.5C10.8866 434.1 11.2 433.787 11.2 433.4Z" fill="#0F1E36"/>
<path opacity="0.5" fill-rule="evenodd" clip-rule="evenodd" d="M14.7 481H2.1C0.940202 481 0 480.06 0 478.9V469.1C0 467.94 0.940202 467 2.1 467H6.419C6.97577 467 7.50955 467.222 7.903 467.616L8.19 467.903C8.42784 468.181 8.41185 468.595 8.15329 468.853C7.89474 469.112 7.48073 469.128 7.203 468.89L6.916 468.603C6.7839 468.472 6.60506 468.399 6.419 468.4H2.1C1.7134 468.4 1.4 468.713 1.4 469.1V478.9C1.4 479.287 1.7134 479.6 2.1 479.6H14.7C15.0866 479.6 15.4 479.287 15.4 478.9V471.9C15.4 471.513 15.0866 471.2 14.7 471.2H3.5C3.1134 471.2 2.8 470.887 2.8 470.5C2.8 470.113 3.1134 469.8 3.5 469.8H14.7C15.8598 469.8 16.8 470.74 16.8 471.9V478.9C16.8 479.457 16.5788 479.991 16.1849 480.385C15.7911 480.779 15.257 481 14.7 481ZM9.1 474V473.3C9.1 472.913 8.7866 472.6 8.4 472.6C8.0134 472.6 7.7 472.913 7.7 473.3V474C7.7 474.387 8.0134 474.7 8.4 474.7C8.7866 474.7 9.1 474.387 9.1 474ZM9.1 477.5V476.8C9.1 476.413 8.7866 476.1 8.4 476.1C8.0134 476.1 7.7 476.413 7.7 476.8V477.5C7.7 477.887 8.0134 478.2 8.4 478.2C8.7866 478.2 9.1 477.887 9.1 477.5ZM7.7 475.4C7.7 475.013 7.3866 474.7 7 474.7H6.3C5.9134 474.7 5.6 475.013 5.6 475.4C5.6 475.787 5.9134 476.1 6.3 476.1H7C7.3866 476.1 7.7 475.787 7.7 475.4ZM11.2 475.4C11.2 475.013 10.8866 474.7 10.5 474.7H9.8C9.4134 474.7 9.1 475.013 9.1 475.4C9.1 475.787 9.4134 476.1 9.8 476.1H10.5C10.8866 476.1 11.2 475.787 11.2 475.4Z" fill="#0F1E36"/>
<path opacity="0.5" fill-rule="evenodd" clip-rule="evenodd" d="M14.7 523H2.1C0.940202 523 0 522.06 0 520.9V511.1C0 509.94 0.940202 509 2.1 509H6.419C6.97577 509 7.50955 509.222 7.903 509.616L8.19 509.903C8.42784 510.181 8.41185 510.595 8.15329 510.853C7.89474 511.112 7.48073 511.128 7.203 510.89L6.916 510.603C6.7839 510.472 6.60506 510.399 6.419 510.4H2.1C1.7134 510.4 1.4 510.713 1.4 511.1V520.9C1.4 521.287 1.7134 521.6 2.1 521.6H14.7C15.0866 521.6 15.4 521.287 15.4 520.9V513.9C15.4 513.513 15.0866 513.2 14.7 513.2H3.5C3.1134 513.2 2.8 512.887 2.8 512.5C2.8 512.113 3.1134 511.8 3.5 511.8H14.7C15.8598 511.8 16.8 512.74 16.8 513.9V520.9C16.8 521.457 16.5788 521.991 16.1849 522.385C15.7911 522.779 15.257 523 14.7 523ZM9.1 516V515.3C9.1 514.913 8.7866 514.6 8.4 514.6C8.0134 514.6 7.7 514.913 7.7 515.3V516C7.7 516.387 8.0134 516.7 8.4 516.7C8.7866 516.7 9.1 516.387 9.1 516ZM9.1 519.5V518.8C9.1 518.413 8.7866 518.1 8.4 518.1C8.0134 518.1 7.7 518.413 7.7 518.8V519.5C7.7 519.887 8.0134 520.2 8.4 520.2C8.7866 520.2 9.1 519.887 9.1 519.5ZM7.7 517.4C7.7 517.013 7.3866 516.7 7 516.7H6.3C5.9134 516.7 5.6 517.013 5.6 517.4C5.6 517.787 5.9134 518.1 6.3 518.1H7C7.3866 518.1 7.7 517.787 7.7 517.4ZM11.2 517.4C11.2 517.013 10.8866 516.7 10.5 516.7H9.8C9.4134 516.7 9.1 517.013 9.1 517.4C9.1 517.787 9.4134 518.1 9.8 518.1H10.5C10.8866 518.1 11.2 517.787 11.2 517.4Z" fill="#0F1E36"/>
<path opacity="0.5" fill-rule="evenodd" clip-rule="evenodd" d="M14.7 561H2.1C0.940202 561 0 560.06 0 558.9V549.1C0 547.94 0.940202 547 2.1 547H6.419C6.97577 547 7.50955 547.222 7.903 547.616L8.19 547.903C8.42784 548.181 8.41185 548.595 8.15329 548.853C7.89474 549.112 7.48073 549.128 7.203 548.89L6.916 548.603C6.7839 548.472 6.60506 548.399 6.419 548.4H2.1C1.7134 548.4 1.4 548.713 1.4 549.1V558.9C1.4 559.287 1.7134 559.6 2.1 559.6H14.7C15.0866 559.6 15.4 559.287 15.4 558.9V551.9C15.4 551.513 15.0866 551.2 14.7 551.2H3.5C3.1134 551.2 2.8 550.887 2.8 550.5C2.8 550.113 3.1134 549.8 3.5 549.8H14.7C15.8598 549.8 16.8 550.74 16.8 551.9V558.9C16.8 559.457 16.5788 559.991 16.1849 560.385C15.7911 560.779 15.257 561 14.7 561ZM9.1 554V553.3C9.1 552.913 8.7866 552.6 8.4 552.6C8.0134 552.6 7.7 552.913 7.7 553.3V554C7.7 554.387 8.0134 554.7 8.4 554.7C8.7866 554.7 9.1 554.387 9.1 554ZM9.1 557.5V556.8C9.1 556.413 8.7866 556.1 8.4 556.1C8.0134 556.1 7.7 556.413 7.7 556.8V557.5C7.7 557.887 8.0134 558.2 8.4 558.2C8.7866 558.2 9.1 557.887 9.1 557.5ZM7.7 555.4C7.7 555.013 7.3866 554.7 7 554.7H6.3C5.9134 554.7 5.6 555.013 5.6 555.4C5.6 555.787 5.9134 556.1 6.3 556.1H7C7.3866 556.1 7.7 555.787 7.7 555.4ZM11.2 555.4C11.2 555.013 10.8866 554.7 10.5 554.7H9.8C9.4134 554.7 9.1 555.013 9.1 555.4C9.1 555.787 9.4134 556.1 9.8 556.1H10.5C10.8866 556.1 11.2 555.787 11.2 555.4Z" fill="#0F1E36"/>
<path opacity="0.5" fill-rule="evenodd" clip-rule="evenodd" d="M11.9478 366H2.03656C0.911799 366 0 365.081 0 363.947V355.053C0 353.919 0.911799 353 2.03656 353H6.22508C6.76503 353 7.28269 353.217 7.66425 353.602L8.2277 354.17C8.35581 354.298 8.52924 354.369 8.70969 354.368H12.2194C12.5943 354.368 12.8982 354.675 12.8982 355.053C12.8982 355.43 12.5943 355.737 12.2194 355.737H8.70969C8.16974 355.736 7.65208 355.52 7.27052 355.135L6.70707 354.567C6.57896 354.439 6.40552 354.367 6.22508 354.368H2.03656C1.66164 354.368 1.35771 354.675 1.35771 355.053V363.947C1.35771 364.325 1.66164 364.631 2.03656 364.631H11.9478C12.2336 364.631 12.4888 364.451 12.5859 364.18L14.6225 358.474H5.9196L4.71803 362.114C4.59993 362.473 4.21545 362.667 3.85928 362.548C3.50311 362.429 3.31011 362.042 3.42821 361.683L4.62978 358.043C4.81421 357.483 5.3341 357.105 5.9196 357.105H14.6429C15.0852 357.105 15.4997 357.323 15.7538 357.688C16.0078 358.053 16.0695 358.52 15.9191 358.939L13.8825 364.645C13.5885 365.465 12.8127 366.008 11.9478 366Z" fill="#0F1E36"/>
<path opacity="0.5" fill-rule="evenodd" clip-rule="evenodd" d="M14.125 325.5H12.875C12.5298 325.5 12.25 325.22 12.25 324.875C12.25 324.53 12.5298 324.25 12.875 324.25H14.125C14.4702 324.25 14.75 323.97 14.75 323.625V317.375C14.75 317.03 14.4702 316.75 14.125 316.75H4.125C3.77982 316.75 3.5 316.47 3.5 316.125C3.5 315.78 3.77982 315.5 4.125 315.5H14.125C15.1605 315.5 16 316.339 16 317.375V323.625C16 324.661 15.1605 325.5 14.125 325.5ZM5.375 324.875C5.375 324.53 5.09518 324.25 4.75 324.25H2.875C2.52982 324.25 2.25 323.97 2.25 323.625V314.875C2.25 314.53 2.52982 314.25 2.875 314.25H6.73125C6.89738 314.249 7.05705 314.314 7.175 314.431L7.43125 314.688C7.67922 314.9 8.04887 314.886 8.27973 314.655C8.51058 314.424 8.52486 314.054 8.3125 313.806L8.05625 313.55C7.70496 313.198 7.22836 313 6.73125 313H2.875C1.83947 313 1 313.839 1 314.875V323.625C1 324.661 1.83947 325.5 2.875 325.5H4.75C5.09518 325.5 5.375 325.22 5.375 324.875ZM8.94361 325.319L11.4436 322.819C11.656 322.571 11.6417 322.201 11.4108 321.97C11.18 321.739 10.8103 321.725 10.5624 321.938L9.13111 323.369V318.625C9.13111 318.28 8.85129 318 8.50611 318C8.16094 318 7.88111 318.28 7.88111 318.625V324.875C7.87964 325.129 8.03193 325.358 8.26644 325.456C8.50095 325.553 8.77106 325.499 8.94986 325.319H8.94361ZM7.06881 323.444C7.31114 323.2 7.31114 322.806 7.06881 322.563L6.44381 321.938C6.29107 321.759 6.05124 321.681 5.82292 321.736C5.59461 321.791 5.41635 321.97 5.36143 322.198C5.30651 322.426 5.3842 322.666 5.56256 322.819L6.18756 323.444C6.43133 323.686 6.82504 323.686 7.06881 323.444Z" fill="#0F1E36"/>
<path opacity="0.5" fill-rule="evenodd" clip-rule="evenodd" d="M8.17611 281.695C7.79365 281.695 7.4836 281.385 7.4836 281.003V275.629L6.36174 273.385H1.68041L2.37291 274.77H5.40609C5.78855 274.77 6.09859 275.08 6.09859 275.463C6.09859 275.845 5.78855 276.155 5.40609 276.155H2.07513C1.73415 276.156 1.42249 275.962 1.27183 275.656L0.0945689 273.302C-0.0443627 273.023 -0.0294095 272.693 0.134107 272.428C0.297623 272.163 0.58648 272.001 0.897875 272H6.36867C6.89424 272 7.37437 272.298 7.60825 272.769L8.87554 275.303V281.009C8.87371 281.193 8.79899 281.369 8.66782 281.497C8.53665 281.626 8.35977 281.697 8.17611 281.695ZM15.1013 282.388V278.233C15.1013 277.85 14.7913 277.54 14.4088 277.54C14.0263 277.54 13.7163 277.85 13.7163 278.233V282.388C13.7163 282.77 13.4063 283.08 13.0238 283.08H3.32872C2.94626 283.08 2.63622 282.77 2.63622 282.388V278.233C2.63622 277.85 2.32617 277.54 1.94371 277.54C1.56125 277.54 1.25121 277.85 1.25121 278.233V282.388C1.25121 283.535 2.18134 284.465 3.32872 284.465H13.0238C13.5748 284.465 14.1032 284.246 14.4928 283.857C14.8824 283.467 15.1013 282.939 15.1013 282.388ZM15.1014 275.656L16.2787 273.302C16.4176 273.023 16.4026 272.693 16.2391 272.428C16.0756 272.163 15.7868 272.001 15.4754 272H9.56137C9.17891 272 8.86886 272.31 8.86886 272.693C8.86886 273.075 9.17891 273.385 9.56137 273.385H14.6721L13.9796 274.77H10.9464C10.5639 274.77 10.2539 275.08 10.2539 275.463C10.2539 275.845 10.5639 276.155 10.9464 276.155H14.2773C14.6203 276.157 14.9345 275.963 15.0876 275.656H15.1014Z" fill="#0F1E36"/>
<path opacity="0.5" fill-rule="evenodd" clip-rule="evenodd" d="M13.0969 243.994H8.36905C7.87359 243.993 7.39859 243.797 7.04847 243.449L6.17017 242.575C5.9924 242.424 5.91497 242.186 5.96971 241.96C6.02445 241.734 6.20211 241.557 6.42966 241.503C6.65721 241.448 6.89624 241.525 7.04847 241.702L7.92678 242.575C8.04433 242.691 8.20347 242.756 8.36905 242.755H13.0969C13.392 242.763 13.6521 242.564 13.7199 242.278L14.7601 237.943C14.8047 237.756 14.7593 237.559 14.6373 237.409C14.5153 237.26 14.3305 237.176 14.1372 237.181H9.48406C9.05295 237.181 8.6526 236.959 8.4256 236.595C8.19859 236.23 8.1772 235.775 8.36905 235.391L9.44668 233.254C9.55588 233.037 9.5454 232.78 9.41893 232.572C9.29247 232.365 9.06773 232.237 8.82377 232.232L6.13279 236.246C5.62307 237.005 5.30863 237.877 5.21711 238.785L4.86205 242.328C4.76573 243.281 3.95661 244.005 2.99332 244H2.86874C1.83666 244 1 243.168 1 242.142V237.187C1 236.161 1.83666 235.329 2.86874 235.329C3.21276 235.329 3.49165 235.606 3.49165 235.949C3.49165 236.291 3.21276 236.568 2.86874 236.568C2.52471 236.568 2.24582 236.845 2.24582 237.187V242.142C2.24582 242.484 2.52471 242.761 2.86874 242.761H2.98709C3.30819 242.763 3.57789 242.522 3.61 242.204L3.96506 238.661C4.07801 237.554 4.46074 236.491 5.08007 235.565L7.77105 231.551C8.00169 231.208 8.38952 231.001 8.80508 231C9.48417 230.999 10.1151 231.348 10.472 231.923C10.8288 232.497 10.8604 233.215 10.5555 233.818L9.47783 235.955H14.131C14.7022 235.955 15.2422 236.214 15.5967 236.66C15.9512 237.105 16.0813 237.687 15.9499 238.24L14.9096 242.575C14.7059 243.407 13.9576 243.992 13.0969 243.994Z" fill="#0F1E36"/>
<path opacity="0.5" fill-rule="evenodd" clip-rule="evenodd" d="M1.36112 173.073C1.2419 173.074 1.12456 173.043 1.02084 172.985C0.386636 172.618 -0.00289117 171.941 1.61616e-05 171.208V163.042C-0.000451798 162.312 0.388748 161.637 1.02084 161.272C1.23181 161.138 1.49931 161.13 1.7176 161.252C1.93589 161.374 2.06982 161.606 2.06643 161.856C2.06305 162.106 1.9229 162.334 1.7014 162.45C1.48999 162.572 1.36015 162.798 1.36112 163.042V171.208C1.36015 171.452 1.48999 171.678 1.7014 171.8C1.97104 171.953 2.10339 172.269 2.02333 172.568C1.94328 172.868 1.67104 173.075 1.36112 173.073ZM15.3129 172.978C15.945 172.613 16.3342 171.938 16.3337 171.208V163.042C16.3332 162.316 15.9471 161.644 15.3197 161.279C15.1087 161.145 14.8412 161.137 14.6229 161.259C14.4047 161.381 14.2707 161.613 14.2741 161.863C14.2775 162.113 14.4176 162.341 14.6392 162.456C14.8485 162.577 14.978 162.8 14.9794 163.042V171.208C14.9804 171.452 14.8506 171.678 14.6392 171.8C14.4176 171.916 14.2775 172.144 14.2741 172.394C14.2707 172.644 14.4047 172.876 14.6229 172.998C14.8412 173.119 15.1087 173.112 15.3197 172.978H15.3129ZM4.08289 171.889C3.70703 171.889 3.40233 172.194 3.40233 172.569C3.40233 172.945 3.70703 173.25 4.08289 173.25C4.45874 173.25 4.76344 172.945 4.76344 172.569C4.76344 172.194 4.45874 171.889 4.08289 171.889ZM6.80571 171.889C6.42985 171.889 6.12516 172.194 6.12516 172.569C6.12516 172.945 6.42985 173.25 6.80571 173.25C7.18157 173.25 7.48626 172.945 7.48626 172.569C7.48626 172.194 7.18157 171.889 6.80571 171.889ZM9.52766 171.889C9.1518 171.889 8.84711 172.194 8.84711 172.569C8.84711 172.945 9.1518 173.25 9.52766 173.25C9.90352 173.25 10.2082 172.945 10.2082 172.569C10.2082 172.194 9.90352 171.889 9.52766 171.889ZM12.2501 171.889C11.8742 171.889 11.5695 172.194 11.5695 172.569C11.5695 172.945 11.8742 173.25 12.2501 173.25C12.6259 173.25 12.9306 172.945 12.9306 172.569C12.9306 172.194 12.6259 171.889 12.2501 171.889ZM4.08289 161C3.70703 161 3.40233 161.305 3.40233 161.681C3.40233 162.056 3.70703 162.361 4.08289 162.361C4.45874 162.361 4.76344 162.056 4.76344 161.681C4.76344 161.305 4.45874 161 4.08289 161ZM6.80571 161C6.42985 161 6.12516 161.305 6.12516 161.681C6.12516 162.056 6.42985 162.361 6.80571 162.361C7.18157 162.361 7.48626 162.056 7.48626 161.681C7.48626 161.305 7.18157 161 6.80571 161ZM9.52766 161C9.1518 161 8.84711 161.305 8.84711 161.681C8.84711 162.056 9.1518 162.361 9.52766 162.361C9.90352 162.361 10.2082 162.056 10.2082 161.681C10.2082 161.305 9.90352 161 9.52766 161ZM12.2501 161C11.8742 161 11.5695 161.305 11.5695 161.681C11.5695 162.056 11.8742 162.361 12.2501 162.361C12.6259 162.361 12.9306 162.056 12.9306 161.681C12.9306 161.305 12.6259 161 12.2501 161ZM7.48612 169.847V165.764L9.58222 167.397L9.1875 167.629C8.96599 167.744 8.82584 167.972 8.82246 168.222C8.81908 168.472 8.953 168.704 9.17129 168.826C9.38958 168.948 9.65708 168.94 9.86805 168.806L11.1339 168.064C11.3282 167.95 11.4534 167.747 11.4684 167.522C11.4834 167.298 11.3862 167.08 11.2087 166.941L7.2207 163.831C7.0155 163.669 6.73553 163.639 6.50045 163.753C6.26538 163.868 6.11679 164.107 6.11821 164.369V169.813C6.11821 170.189 6.4229 170.494 6.79876 170.494C7.17462 170.494 7.47931 170.189 7.47931 169.813L7.48612 169.847Z" fill="#0F1E36"/>
<path opacity="0.5" fill-rule="evenodd" clip-rule="evenodd" d="M12 133H5.33333C4.96514 133 4.66667 132.702 4.66667 132.333C4.66667 131.965 4.96514 131.667 5.33333 131.667H12C12.3682 131.667 12.6667 131.368 12.6667 131V128.233C12.6331 127.859 12.4088 127.529 12.0733 127.36C9.46025 126.305 6.53975 126.305 3.92667 127.36C3.59125 127.529 3.36689 127.859 3.33333 128.233V132.333C3.33333 132.702 3.03486 133 2.66667 133C2.29848 133 2 132.702 2 132.333V128.233C2.02948 127.313 2.58421 126.491 3.42667 126.12C6.36032 124.935 9.63968 124.935 12.5733 126.12C13.4158 126.491 13.9705 127.313 14 128.233V131C14 132.105 13.1046 133 12 133ZM11.3333 120.333C11.3333 118.492 9.84095 117 8 117C6.15905 117 4.66667 118.492 4.66667 120.333C4.66667 122.174 6.15905 123.667 8 123.667C9.84095 123.667 11.3333 122.174 11.3333 120.333ZM10 120.333C10 121.438 9.10457 122.333 8 122.333C6.89543 122.333 6 121.438 6 120.333C6 119.229 6.89543 118.333 8 118.333C9.10457 118.333 10 119.229 10 120.333Z" fill="#0F1E36"/>
<path opacity="0.5" fill-rule="evenodd" clip-rule="evenodd" d="M12.2871 93.9866H8.01414C7.64426 93.9866 7.34441 93.6868 7.34441 93.3169C7.34441 92.947 7.64426 92.6471 8.01414 92.6471H12.2871C12.5175 92.6472 12.7053 92.4623 12.709 92.2319V84.5232C12.7088 84.413 12.6656 84.3073 12.5884 84.2285L10.5056 82.1457C10.4273 82.0679 10.3212 82.0245 10.2109 82.0251H6.43357C6.20316 82.0288 6.0183 82.2166 6.01833 82.4471V93.3303C6.01833 93.7001 5.71848 94 5.34859 94C4.97871 94 4.67886 93.7001 4.67886 93.3303V82.4471C4.68255 81.4769 5.47008 80.6923 6.44026 80.6923H10.2176C10.6851 80.6907 11.1337 80.8765 11.4633 81.208L13.5462 83.2909C13.8758 83.6217 14.0612 84.0696 14.0619 84.5366V92.2453C14.0508 93.2155 13.2573 93.994 12.2871 93.9866ZM3.33278 90.6379V79.7547C3.33643 79.5243 3.52427 79.3394 3.75471 79.3395H8.20176C8.57164 79.3395 8.87149 79.0396 8.87149 78.6697C8.87149 78.2999 8.57164 78 8.20176 78H3.75471C2.78453 78.0037 1.99999 78.7912 2 79.7614V90.6446C2 91.0145 2.29985 91.3144 2.66974 91.3144C3.03962 91.3144 3.33947 91.0145 3.33947 90.6446L3.33278 90.6379Z" fill="#0F1E36"/>
<path opacity="0.5" fill-rule="evenodd" clip-rule="evenodd" d="M5.54692 54C5.27085 53.9996 4.99591 53.9646 4.72848 53.8958C3.73381 53.5697 3.04502 52.6586 3 51.6095C3 49.6726 4.99722 49.1577 6.05386 49.1577C6.39118 49.1577 6.66463 49.4321 6.66463 49.7706C6.66463 50.1092 6.39118 50.3836 6.05386 50.3836C5.98057 50.3836 4.22154 50.3836 4.22154 51.6095C4.27442 52.0911 4.58291 52.5062 5.02776 52.6944C5.69198 52.8605 6.39535 52.7039 6.92726 52.2715C7.53311 51.7966 7.88872 51.0693 7.89228 50.2978V41.4835C7.8989 40.6903 8.25159 39.9398 8.8573 39.4301C9.29409 39.0624 9.87657 38.9196 10.4331 39.044C12.0028 39.4056 14 41.6061 14 43.5614C13.9378 44.5768 13.3455 45.4835 12.4425 45.9458C12.1406 46.0981 11.7728 45.976 11.621 45.673C11.4692 45.3701 11.5909 45.001 11.8928 44.8486C12.3837 44.5918 12.7155 44.1072 12.7785 43.5553C12.7785 42.1516 11.1416 40.4905 10.1582 40.2331C9.96594 40.1925 9.76591 40.2472 9.62077 40.3802C9.30572 40.6556 9.12155 41.052 9.11383 41.4712V50.2855C9.11047 51.4339 8.584 52.5177 7.68462 53.2277C7.07911 53.7195 6.32584 53.9916 5.54692 54Z" fill="#0F1E36"/>
<path fill-rule="evenodd" clip-rule="evenodd" d="M9.74483 15.0899C9.45698 15.0905 9.18088 14.9759 8.97803 14.7717L8.21124 14.0049C8.0048 13.8281 7.91488 13.5505 7.97845 13.2862C8.04201 13.022 8.24834 12.8157 8.51259 12.7521C8.77685 12.6885 9.05443 12.7784 9.23122 12.9849L9.74483 13.4985L9.99801 13.2453C10.0526 13.1904 10.0881 13.1194 10.0993 13.0428L10.5261 10.0624C10.5714 9.75246 10.7161 9.46561 10.9384 9.24496L12.7397 7.44372C13.965 6.22665 14.6527 4.57002 14.6494 2.84296V1.44681H13.2533C11.5262 1.44353 9.86957 2.13119 8.65251 3.35656L6.85127 5.1578C6.63061 5.38011 6.34376 5.5248 6.03384 5.57014L3.04624 5.99694C2.96962 6.00814 2.89862 6.04364 2.84369 6.09821L2.5905 6.3514L3.10411 6.865C3.31055 7.04179 3.40047 7.31938 3.3369 7.58363C3.27334 7.84789 3.06701 8.05421 2.80276 8.11778C2.5385 8.18134 2.26092 8.09142 2.08413 7.88498L1.31734 7.11819C0.894221 6.69455 0.894221 6.00825 1.31734 5.5846L1.83094 5.071C2.10685 4.79455 2.46454 4.61443 2.85092 4.55739L5.83852 4.13059L7.63976 2.32935C9.12941 0.832479 11.156 -0.00627152 13.2677 3.53116e-05H15.3728C15.7723 3.53116e-05 16.0962 0.323908 16.0962 0.723425V2.84296C16.1025 4.95474 15.2637 6.98129 13.7669 8.47093L11.9656 10.2722L11.5388 13.2598C11.4818 13.6462 11.3017 14.0038 11.0252 14.2797L10.5116 14.7934C10.3052 14.9896 10.0296 15.0963 9.74483 15.0899ZM6.1639 12.9849L7.18388 11.9649C7.42967 11.6779 7.41315 11.2501 7.14595 10.9829C6.87875 10.7157 6.45092 10.6991 6.1639 10.9449L5.14392 11.9649C4.93749 12.1417 4.84756 12.4193 4.91113 12.6835C4.9747 12.9478 5.18102 13.1541 5.44527 13.2177C5.70953 13.2812 5.98711 13.1913 6.1639 12.9849ZM3.09692 11.9649L5.14411 9.91771C5.3899 9.63069 5.37337 9.20286 5.10618 8.93566C4.83898 8.66846 4.41114 8.65193 4.12413 8.89773L2.07694 10.9449C1.8705 11.1217 1.78058 11.3993 1.84414 11.6635C1.90771 11.9278 2.11403 12.1341 2.37829 12.1977C2.64254 12.2613 2.92013 12.1713 3.09692 11.9649ZM12.3057 6.85054C13.1519 6.00325 13.1519 4.63065 12.3057 3.78337C12.1289 3.57693 11.8513 3.48701 11.5871 3.55057C11.3228 3.61414 11.1165 3.82046 11.0529 4.08472C10.9893 4.34897 11.0793 4.62656 11.2857 4.80335C11.4227 4.93917 11.4997 5.12407 11.4997 5.31695C11.4997 5.50984 11.4227 5.69473 11.2857 5.83056C11.0036 6.11103 10.5479 6.11103 10.2657 5.83056C10.1288 5.69473 10.0517 5.50984 10.0517 5.31695C10.0517 5.12407 10.1288 4.93917 10.2657 4.80335C10.5115 4.51633 10.495 4.0885 10.2278 3.8213C9.9606 3.5541 9.53276 3.53758 9.24575 3.78337C8.66514 4.32438 8.42615 5.13916 8.62252 5.90807C8.81888 6.67699 9.4193 7.2774 10.1882 7.47377C10.9571 7.67014 11.7719 7.43114 12.3129 6.85054H12.3057Z" fill="#3E2AD1"/>
<path fill-rule="evenodd" clip-rule="evenodd" d="M118.001 401.48H116.504C116.228 401.48 116.005 401.257 116.005 400.981C116.005 400.705 116.228 400.482 116.504 400.482H118.001C118.277 400.482 118.501 400.705 118.501 400.981C118.501 401.257 118.277 401.48 118.001 401.48ZM122.349 405.973C122.497 405.873 122.581 405.701 122.568 405.523C122.556 405.345 122.449 405.187 122.289 405.109C122.128 405.031 121.938 405.044 121.79 405.144C119.648 406.606 116.747 406.21 115.075 404.227C113.403 402.245 113.501 399.319 115.303 397.454C117.105 395.588 120.026 395.389 122.065 396.992C124.104 398.594 124.6 401.48 123.213 403.671C123.117 403.822 123.11 404.012 123.192 404.17C123.275 404.328 123.436 404.43 123.614 404.437C123.793 404.445 123.961 404.356 124.056 404.206C125.694 401.61 125.105 398.197 122.692 396.3C120.279 394.404 116.824 394.637 114.688 396.841C112.553 399.045 112.428 402.507 114.4 404.858C116.372 407.21 119.802 407.691 122.344 405.973H122.349ZM121.995 400.981C121.995 400.705 121.771 400.482 121.496 400.482H119.998C119.722 400.482 119.499 400.705 119.499 400.981C119.499 401.257 119.722 401.48 119.998 401.48H121.496C121.771 401.48 121.995 401.257 121.995 400.981ZM119.499 403.477V401.979C119.499 401.703 119.275 401.48 119 401.48C118.724 401.48 118.501 401.703 118.501 401.979V403.477C118.501 403.752 118.724 403.976 119 403.976C119.275 403.976 119.499 403.752 119.499 403.477ZM119.499 399.982V398.485C119.499 398.209 119.275 397.986 119 397.986C118.724 397.986 118.501 398.209 118.501 398.485V399.982C118.501 400.258 118.724 400.482 119 400.482C119.275 400.482 119.499 400.258 119.499 399.982Z" fill="#3F4B5E"/>
</svg>
