<svg width="16" height="12" viewBox="0 0 16 12" fill="none" xmlns="http://www.w3.org/2000/svg">
<path fill-rule="evenodd" clip-rule="evenodd" d="M8.32997 2.608C10.5459 2.6081 12.677 3.45954 14.283 4.98633C14.4039 5.10421 14.5972 5.10272 14.7163 4.983L15.8723 3.81633C15.9326 3.75561 15.9662 3.67336 15.9657 3.58778C15.9652 3.5022 15.9306 3.42035 15.8696 3.36033C11.6545 -0.679214 5.00473 -0.679214 0.789632 3.36033C0.728573 3.4203 0.693929 3.50213 0.693366 3.58771C0.692803 3.67329 0.726368 3.75557 0.786632 3.81633L1.94297 4.983C2.06199 5.1029 2.25544 5.10439 2.3763 4.98633C3.98245 3.45943 6.11385 2.608 8.32997 2.608ZM8.32997 6.40367C9.54745 6.40359 10.7215 6.85612 11.624 7.67333C11.746 7.78931 11.9383 7.7868 12.0573 7.66767L13.212 6.501C13.2728 6.43981 13.3065 6.35679 13.3056 6.27052C13.3048 6.18426 13.2693 6.10195 13.2073 6.042C10.4591 3.48562 6.20316 3.48562 3.45497 6.042C3.39289 6.10195 3.35747 6.1843 3.35665 6.27059C3.35584 6.35689 3.3897 6.43989 3.45063 6.501L4.60497 7.66767C4.72395 7.7868 4.91624 7.78931 5.0383 7.67333C5.94017 6.85666 7.11328 6.40417 8.32997 6.40367ZM10.643 8.95749C10.6447 9.04399 10.6107 9.12739 10.549 9.188L8.55163 11.2037C8.49308 11.2629 8.41326 11.2962 8.32997 11.2962C8.24667 11.2962 8.16685 11.2629 8.1083 11.2037L6.11063 9.188C6.04892 9.12735 6.01497 9.04392 6.0168 8.95741C6.01863 8.87091 6.05608 8.78899 6.1203 8.731C7.39587 7.65212 9.26406 7.65212 10.5396 8.731C10.6038 8.78903 10.6412 8.87098 10.643 8.95749Z" fill="white"/>
</svg>
